<svg viewBox="0 0 28 25" fill="none" xmlns="http://www.w3.org/2000/svg" class="icon icon-cart">
    <g clip-path="url(#clip0_1333_21440)">
        <path
            d="M25.0097 20.9526C25.0026 20.2172 24.7412 19.5069 24.2698 18.9424C23.7985 18.3779 23.1463 17.9939 22.4239 17.8556C21.7016 17.7174 20.9537 17.8334 20.3072 18.1839C19.6607 18.5345 19.1554 19.098 18.8772 19.7788C18.5991 20.4596 18.5651 21.2157 18.7811 21.9187C18.9971 22.6217 19.4497 23.2283 20.0621 23.6355C20.6746 24.0426 21.4091 24.2252 22.1409 24.1523C22.8727 24.0794 23.5567 23.7555 24.0768 23.2355C24.3748 22.935 24.6106 22.5787 24.7706 22.187C24.9307 21.7953 25.0119 21.3758 25.0097 20.9526ZM20.4471 20.9526C20.4471 20.6786 20.5287 20.4109 20.6815 20.1835C20.8344 19.9561 21.0515 19.7794 21.3052 19.676C21.5589 19.5725 21.8376 19.547 22.1059 19.6027C22.3742 19.6584 22.6197 19.7928 22.8113 19.9887C23.0028 20.1846 23.1316 20.4331 23.1813 20.7026C23.231 20.972 23.1992 21.2501 23.0901 21.5014C22.981 21.7527 22.7995 21.9658 22.5687 22.1135C22.3379 22.2612 22.0684 22.3368 21.7945 22.3306C21.6147 22.3311 21.4367 22.2955 21.2708 22.2261C21.105 22.1567 20.9548 22.0547 20.829 21.9263C20.7032 21.7979 20.6044 21.6455 20.5385 21.4783C20.4725 21.3111 20.4407 21.1323 20.4449 20.9526H20.4471Z"
            fill="currentColor"></path>
        <path
            d="M3.57555 0.833984H1.58518C1.34154 0.833984 1.10788 0.930769 0.935605 1.10305C0.763327 1.27532 0.666543 1.50898 0.666543 1.75262C0.662347 1.87439 0.683238 1.99572 0.727919 2.10907C0.772599 2.22242 0.840115 2.32537 0.926269 2.41153C1.01242 2.49768 1.11537 2.5652 1.22873 2.60988C1.34208 2.65456 1.46341 2.67545 1.58518 2.67125H3.57555C3.92286 2.67503 4.25899 2.79453 4.53075 3.01083C4.80251 3.22713 4.99437 3.52787 5.07599 3.86548L8.16872 16.8204H21.4299C22.3396 16.8136 23.2201 16.4977 23.9267 15.9246C24.6334 15.3515 25.1242 14.5552 25.3187 13.6664L27.4316 3.74518H6.94388L6.85201 3.43897C6.67937 2.69923 6.26176 2.03957 5.66698 1.56708C5.07219 1.09458 4.33516 0.83701 3.57555 0.836172V0.833984ZM25.1635 5.58027L23.5077 13.2662C23.4096 13.7465 23.1499 14.1787 22.7718 14.4907C22.3937 14.8027 21.9201 14.9758 21.4299 14.981H9.60791L7.37257 5.58027H25.1635Z"
            fill="currentColor"></path>
        <path
            d="M13.4355 20.9526C13.4283 20.2172 13.1669 19.5069 12.6956 18.9424C12.2242 18.3779 11.572 17.9939 10.8497 17.8556C10.1274 17.7174 9.37946 17.8334 8.73296 18.1839C8.08646 18.5345 7.58121 19.098 7.30303 19.7788C7.02484 20.4596 6.99085 21.2157 7.20684 21.9187C7.42283 22.6217 7.87548 23.2283 8.48793 23.6355C9.10037 24.0426 9.83486 24.2252 10.5667 24.1523C11.2985 24.0794 11.9825 23.7555 12.5026 23.2355C12.8006 22.935 13.0363 22.5787 13.1964 22.187C13.3565 21.7953 13.4377 21.3758 13.4355 20.9526ZM8.87291 20.9526C8.87287 20.6786 8.95447 20.4109 9.1073 20.1835C9.26013 19.9561 9.47725 19.7794 9.73095 19.676C9.98465 19.5725 10.2634 19.547 10.5317 19.6027C10.7999 19.6584 11.0455 19.7928 11.237 19.9887C11.4286 20.1846 11.5574 20.4331 11.6071 20.7026C11.6567 20.972 11.625 21.2501 11.5159 21.5014C11.4067 21.7527 11.2252 21.9658 10.9945 22.1135C10.7637 22.2612 10.4941 22.3368 10.2202 22.3306C10.0407 22.3308 9.86285 22.295 9.69729 22.2255C9.53172 22.1559 9.38175 22.0539 9.2562 21.9255C9.13065 21.7971 9.03206 21.6449 8.96623 21.4778C8.90041 21.3107 8.86868 21.1322 8.87291 20.9526Z"
            fill="currentColor"></path>
    </g>
    <defs>
        <clipPath id="clip0_1333_21440">
            <rect width="26.7635" height="23.3333" fill="white"
                transform="translate(0.666016 0.833984)"></rect>
        </clipPath>
    </defs>
</svg>