<?xml version="1.0" encoding="utf-8"?>
<!-- Generator: Adobe Illustrator 26.2.1, SVG Export Plug-In . SVG Version: 6.00 Build 0)  -->
<svg version="1.1" id="Layer_1" xmlns="http://www.w3.org/2000/svg"
	xmlns:xlink="http://www.w3.org/1999/xlink" x="0px" y="0px"
	viewBox="0 0 32 32" style="enable-background:new 0 0 32 32;" xml:space="preserve">
<style type="text/css">
	.st0{fill:none;stroke:#F8F8EF;stroke-width:2;stroke-linecap:round;stroke-linejoin:round;}
</style>
<path class="st0" d="M10.9,17.5l-3.7,3v-12c0-0.2,0.1-0.4,0.2-0.5C7.6,7.9,7.8,7.8,8,7.8h12c0.2,0,0.4,0.1,0.5,0.2
	c0.1,0.1,0.2,0.3,0.2,0.5v8.3c0,0.2-0.1,0.4-0.2,0.5s-0.3,0.2-0.5,0.2H10.9z"/>
<path class="st0" d="M11.7,17.5v3.8c0,0.2,0.1,0.4,0.2,0.5s0.3,0.2,0.5,0.2h9l3.7,3V13c0-0.2-0.1-0.4-0.2-0.5s-0.3-0.2-0.5-0.2h-3.8
	"/>
</svg>