<svg width="20" height="25" viewBox="0 0 20 25" fill="none" xmlns="http://www.w3.org/2000/svg"
    class="icon icon-account">
    <path
        d="M19.5885 23.1625C19.5805 23.4239 19.4676 23.672 19.274 23.8542C19.0803 24.0363 18.821 24.1382 18.551 24.1382C18.2811 24.1382 18.0218 24.0363 17.8281 23.8542C17.6344 23.672 17.5216 23.4239 17.5135 23.1625C17.5244 22.2323 17.3446 21.3091 16.9847 20.4466C16.6248 19.5841 16.0918 18.7994 15.4167 18.1378C14.7416 17.4763 13.9377 16.9511 13.0517 16.5926C12.1656 16.2342 11.2149 16.0496 10.2547 16.0496C9.29455 16.0496 8.34389 16.2342 7.45782 16.5926C6.57176 16.9511 5.76789 17.4763 5.09277 18.1378C4.41765 18.7994 3.8847 19.5841 3.52477 20.4466C3.16485 21.3091 2.98511 22.2323 2.99595 23.1625C2.99595 23.429 2.88669 23.6846 2.69221 23.873C2.49773 24.0615 2.23395 24.1673 1.95891 24.1673C1.68387 24.1673 1.4201 24.0615 1.22562 23.873C1.03113 23.6846 0.921875 23.429 0.921875 23.1625C0.921875 20.7642 1.90521 18.464 3.65555 16.7681C5.40589 15.0722 7.77986 14.1195 10.2552 14.1195C12.7306 14.1195 15.1045 15.0722 16.8549 16.7681C18.6052 18.464 19.5885 20.7642 19.5885 23.1625ZM10.2552 11.8866C9.12712 11.8866 8.02437 11.5625 7.0864 10.9553C6.14843 10.348 5.41737 9.48494 4.98567 8.47513C4.55397 7.46533 4.44102 6.35417 4.6611 5.28217C4.88118 4.21017 5.42441 3.22548 6.22208 2.45261C7.01976 1.67974 8.03606 1.15341 9.14247 0.940173C10.2489 0.726939 11.3957 0.836379 12.4379 1.25465C13.4801 1.67293 14.3709 2.38125 14.9977 3.29005C15.6244 4.19884 15.9589 5.2673 15.9589 6.3603C15.9587 7.8259 15.3577 9.2314 14.2881 10.2677C13.2185 11.3041 11.7679 11.8864 10.2552 11.8866ZM10.2552 9.87705C10.9731 9.87705 11.6748 9.6708 12.2717 9.28437C12.8686 8.89795 13.3338 8.34871 13.6086 7.7061C13.8833 7.0635 13.9551 6.3564 13.8151 5.67422C13.675 4.99204 13.3294 4.36541 12.8217 3.87359C12.3141 3.38176 11.6674 3.04682 10.9633 2.91113C10.2592 2.77543 9.52944 2.84508 8.86621 3.11125C8.20298 3.37743 7.63611 3.82818 7.23728 4.4065C6.83845 4.98483 6.62558 5.66476 6.62558 6.3603C6.62582 7.29293 7.00831 8.18729 7.68894 8.84675C8.36958 9.50622 9.29265 9.87681 10.2552 9.87705Z"
        fill="currentColor"></path>
</svg>